<mxfile host="app.diagrams.net" modified="2023-04-15T04:24:41.548Z" agent="Mozilla/5.0 (Windows NT 10.0; Win64; x64) AppleWebKit/537.36 (KHTML, like Gecko) Chrome/112.0.0.0 Safari/537.36 Edg/112.0.1722.39" etag="xtVaTEuh0_Ek_rvn3LF9" version="21.1.8" type="device">
  <diagram name="第 1 页" id="g4cSEkr3FwWJi9sQnof1">
    <mxGraphModel dx="993" dy="581" grid="1" gridSize="10" guides="1" tooltips="1" connect="1" arrows="1" fold="1" page="1" pageScale="1" pageWidth="827" pageHeight="1169" math="0" shadow="0">
      <root>
        <mxCell id="0" />
        <mxCell id="1" parent="0" />
        <mxCell id="xDytjCe8XtqU--p5mrni-1" value="&lt;p class=&quot;MsoNormal&quot;&gt;&lt;font face=&quot;宋体&quot;&gt;价格管理&lt;/font&gt;&lt;font face=&quot;宋体&quot;&gt;业务流程&lt;/font&gt;&lt;/p&gt;" style="swimlane;childLayout=stackLayout;resizeParent=1;resizeParentMax=0;horizontal=0;startSize=20;horizontalStack=0;html=1;" vertex="1" parent="1">
          <mxGeometry x="30" y="30" width="790" height="360" as="geometry" />
        </mxCell>
        <mxCell id="xDytjCe8XtqU--p5mrni-2" value="管理员" style="swimlane;startSize=20;horizontal=0;html=1;" vertex="1" parent="xDytjCe8XtqU--p5mrni-1">
          <mxGeometry x="20" width="770" height="120" as="geometry">
            <mxRectangle x="20" width="460" height="30" as="alternateBounds" />
          </mxGeometry>
        </mxCell>
        <mxCell id="xDytjCe8XtqU--p5mrni-8" value="" style="ellipse;whiteSpace=wrap;html=1;aspect=fixed;" vertex="1" parent="xDytjCe8XtqU--p5mrni-2">
          <mxGeometry x="30" y="30" width="50" height="50" as="geometry" />
        </mxCell>
        <mxCell id="xDytjCe8XtqU--p5mrni-14" value="管理员输入账号密码" style="rounded=0;whiteSpace=wrap;html=1;" vertex="1" parent="xDytjCe8XtqU--p5mrni-2">
          <mxGeometry x="120" y="30" width="70" height="50" as="geometry" />
        </mxCell>
        <mxCell id="xDytjCe8XtqU--p5mrni-9" value="" style="endArrow=classic;html=1;rounded=0;exitX=1;exitY=0.5;exitDx=0;exitDy=0;entryX=0;entryY=0.5;entryDx=0;entryDy=0;" edge="1" parent="xDytjCe8XtqU--p5mrni-2" source="xDytjCe8XtqU--p5mrni-8" target="xDytjCe8XtqU--p5mrni-14">
          <mxGeometry width="50" height="50" relative="1" as="geometry">
            <mxPoint x="450" y="290" as="sourcePoint" />
            <mxPoint x="200" y="115" as="targetPoint" />
          </mxGeometry>
        </mxCell>
        <mxCell id="xDytjCe8XtqU--p5mrni-38" value="" style="ellipse;whiteSpace=wrap;html=1;aspect=fixed;" vertex="1" parent="xDytjCe8XtqU--p5mrni-2">
          <mxGeometry x="680" y="30" width="50" height="50" as="geometry" />
        </mxCell>
        <mxCell id="xDytjCe8XtqU--p5mrni-43" value="发送登录&lt;br&gt;失败消息" style="text;html=1;align=center;verticalAlign=middle;resizable=0;points=[];autosize=1;strokeColor=none;fillColor=none;" vertex="1" parent="xDytjCe8XtqU--p5mrni-2">
          <mxGeometry x="410" y="70" width="70" height="40" as="geometry" />
        </mxCell>
        <mxCell id="xDytjCe8XtqU--p5mrni-3" value="验证模块" style="swimlane;startSize=20;horizontal=0;html=1;" vertex="1" parent="xDytjCe8XtqU--p5mrni-1">
          <mxGeometry x="20" y="120" width="770" height="120" as="geometry" />
        </mxCell>
        <mxCell id="xDytjCe8XtqU--p5mrni-15" value="验证账号密码" style="rounded=0;whiteSpace=wrap;html=1;" vertex="1" parent="xDytjCe8XtqU--p5mrni-3">
          <mxGeometry x="120" y="35" width="70" height="50" as="geometry" />
        </mxCell>
        <mxCell id="xDytjCe8XtqU--p5mrni-18" value="是否正确" style="rhombus;whiteSpace=wrap;html=1;" vertex="1" parent="xDytjCe8XtqU--p5mrni-3">
          <mxGeometry x="230" y="35" width="70" height="50" as="geometry" />
        </mxCell>
        <mxCell id="xDytjCe8XtqU--p5mrni-17" value="" style="endArrow=classic;html=1;rounded=0;exitX=1;exitY=0.5;exitDx=0;exitDy=0;entryX=0;entryY=0.5;entryDx=0;entryDy=0;" edge="1" parent="xDytjCe8XtqU--p5mrni-3" source="xDytjCe8XtqU--p5mrni-15" target="xDytjCe8XtqU--p5mrni-18">
          <mxGeometry width="50" height="50" relative="1" as="geometry">
            <mxPoint x="390" y="90" as="sourcePoint" />
            <mxPoint x="260" y="55" as="targetPoint" />
          </mxGeometry>
        </mxCell>
        <mxCell id="xDytjCe8XtqU--p5mrni-33" value="是" style="text;html=1;align=center;verticalAlign=middle;resizable=0;points=[];autosize=1;strokeColor=none;fillColor=none;" vertex="1" parent="xDytjCe8XtqU--p5mrni-3">
          <mxGeometry x="270" y="90" width="40" height="30" as="geometry" />
        </mxCell>
        <mxCell id="xDytjCe8XtqU--p5mrni-42" value="否" style="text;html=1;align=center;verticalAlign=middle;resizable=0;points=[];autosize=1;strokeColor=none;fillColor=none;" vertex="1" parent="xDytjCe8XtqU--p5mrni-3">
          <mxGeometry x="310" y="30" width="40" height="30" as="geometry" />
        </mxCell>
        <mxCell id="xDytjCe8XtqU--p5mrni-59" value="提&lt;br&gt;交&lt;br&gt;价&lt;br&gt;格&lt;br&gt;修&lt;br&gt;改" style="text;html=1;align=center;verticalAlign=middle;resizable=0;points=[];autosize=1;strokeColor=none;fillColor=none;" vertex="1" parent="xDytjCe8XtqU--p5mrni-3">
          <mxGeometry x="670" y="10" width="40" height="100" as="geometry" />
        </mxCell>
        <mxCell id="xDytjCe8XtqU--p5mrni-16" value="" style="endArrow=classic;html=1;rounded=0;exitX=0.5;exitY=1;exitDx=0;exitDy=0;entryX=0.5;entryY=0;entryDx=0;entryDy=0;" edge="1" parent="xDytjCe8XtqU--p5mrni-1" source="xDytjCe8XtqU--p5mrni-14" target="xDytjCe8XtqU--p5mrni-15">
          <mxGeometry width="50" height="50" relative="1" as="geometry">
            <mxPoint x="410" y="220" as="sourcePoint" />
            <mxPoint x="460" y="170" as="targetPoint" />
          </mxGeometry>
        </mxCell>
        <mxCell id="xDytjCe8XtqU--p5mrni-4" value="商品管理模块" style="swimlane;startSize=20;horizontal=0;html=1;" vertex="1" parent="xDytjCe8XtqU--p5mrni-1">
          <mxGeometry x="20" y="240" width="770" height="120" as="geometry" />
        </mxCell>
        <mxCell id="xDytjCe8XtqU--p5mrni-60" style="edgeStyle=orthogonalEdgeStyle;rounded=0;orthogonalLoop=1;jettySize=auto;html=1;exitX=1;exitY=0.5;exitDx=0;exitDy=0;entryX=0;entryY=0.5;entryDx=0;entryDy=0;" edge="1" parent="xDytjCe8XtqU--p5mrni-4" source="xDytjCe8XtqU--p5mrni-24" target="xDytjCe8XtqU--p5mrni-51">
          <mxGeometry relative="1" as="geometry" />
        </mxCell>
        <mxCell id="xDytjCe8XtqU--p5mrni-24" value="选择价格管理模块" style="rounded=0;whiteSpace=wrap;html=1;" vertex="1" parent="xDytjCe8XtqU--p5mrni-4">
          <mxGeometry x="230" y="35" width="70" height="50" as="geometry" />
        </mxCell>
        <mxCell id="xDytjCe8XtqU--p5mrni-62" style="edgeStyle=orthogonalEdgeStyle;rounded=0;orthogonalLoop=1;jettySize=auto;html=1;exitX=1;exitY=0.5;exitDx=0;exitDy=0;entryX=0;entryY=0.5;entryDx=0;entryDy=0;" edge="1" parent="xDytjCe8XtqU--p5mrni-4" source="xDytjCe8XtqU--p5mrni-30" target="xDytjCe8XtqU--p5mrni-54">
          <mxGeometry relative="1" as="geometry" />
        </mxCell>
        <mxCell id="xDytjCe8XtqU--p5mrni-30" value="选择修改价格" style="rounded=0;whiteSpace=wrap;html=1;" vertex="1" parent="xDytjCe8XtqU--p5mrni-4">
          <mxGeometry x="450" y="35" width="70" height="50" as="geometry" />
        </mxCell>
        <mxCell id="xDytjCe8XtqU--p5mrni-61" style="edgeStyle=orthogonalEdgeStyle;rounded=0;orthogonalLoop=1;jettySize=auto;html=1;exitX=1;exitY=0.5;exitDx=0;exitDy=0;entryX=0;entryY=0.5;entryDx=0;entryDy=0;" edge="1" parent="xDytjCe8XtqU--p5mrni-4" source="xDytjCe8XtqU--p5mrni-51" target="xDytjCe8XtqU--p5mrni-30">
          <mxGeometry relative="1" as="geometry" />
        </mxCell>
        <mxCell id="xDytjCe8XtqU--p5mrni-51" value="显示价格管理界面" style="rounded=0;whiteSpace=wrap;html=1;" vertex="1" parent="xDytjCe8XtqU--p5mrni-4">
          <mxGeometry x="340" y="35" width="70" height="50" as="geometry" />
        </mxCell>
        <mxCell id="xDytjCe8XtqU--p5mrni-63" style="edgeStyle=orthogonalEdgeStyle;rounded=0;orthogonalLoop=1;jettySize=auto;html=1;exitX=1;exitY=0.5;exitDx=0;exitDy=0;entryX=0;entryY=0.5;entryDx=0;entryDy=0;" edge="1" parent="xDytjCe8XtqU--p5mrni-4" source="xDytjCe8XtqU--p5mrni-54" target="xDytjCe8XtqU--p5mrni-57">
          <mxGeometry relative="1" as="geometry" />
        </mxCell>
        <mxCell id="xDytjCe8XtqU--p5mrni-54" value="弹出价格修改窗口" style="rounded=0;whiteSpace=wrap;html=1;" vertex="1" parent="xDytjCe8XtqU--p5mrni-4">
          <mxGeometry x="560" y="35" width="70" height="50" as="geometry" />
        </mxCell>
        <mxCell id="xDytjCe8XtqU--p5mrni-57" value="修改商品价格" style="rounded=0;whiteSpace=wrap;html=1;" vertex="1" parent="xDytjCe8XtqU--p5mrni-4">
          <mxGeometry x="670" y="35" width="70" height="50" as="geometry" />
        </mxCell>
        <mxCell id="xDytjCe8XtqU--p5mrni-29" style="edgeStyle=orthogonalEdgeStyle;rounded=0;orthogonalLoop=1;jettySize=auto;html=1;entryX=0.5;entryY=0;entryDx=0;entryDy=0;" edge="1" parent="xDytjCe8XtqU--p5mrni-1" source="xDytjCe8XtqU--p5mrni-18" target="xDytjCe8XtqU--p5mrni-24">
          <mxGeometry relative="1" as="geometry" />
        </mxCell>
        <mxCell id="xDytjCe8XtqU--p5mrni-41" value="" style="endArrow=classic;html=1;rounded=0;exitX=1;exitY=0.5;exitDx=0;exitDy=0;entryX=0;entryY=0.5;entryDx=0;entryDy=0;" edge="1" parent="xDytjCe8XtqU--p5mrni-1" source="xDytjCe8XtqU--p5mrni-18" target="xDytjCe8XtqU--p5mrni-38">
          <mxGeometry width="50" height="50" relative="1" as="geometry">
            <mxPoint x="470" y="260" as="sourcePoint" />
            <mxPoint x="450" y="180" as="targetPoint" />
            <Array as="points">
              <mxPoint x="430" y="180" />
              <mxPoint x="430" y="55" />
            </Array>
          </mxGeometry>
        </mxCell>
        <mxCell id="xDytjCe8XtqU--p5mrni-58" style="edgeStyle=orthogonalEdgeStyle;rounded=0;orthogonalLoop=1;jettySize=auto;html=1;entryX=0.5;entryY=1;entryDx=0;entryDy=0;" edge="1" parent="xDytjCe8XtqU--p5mrni-1" source="xDytjCe8XtqU--p5mrni-57" target="xDytjCe8XtqU--p5mrni-38">
          <mxGeometry relative="1" as="geometry" />
        </mxCell>
      </root>
    </mxGraphModel>
  </diagram>
</mxfile>
